<?xml version="1.0" encoding="UTF-8"?>
<svg width="512" height="512" version="1.1" xmlns="http://www.w3.org/2000/svg" xmlns:xlink="http://www.w3.org/1999/xlink">
  <defs><clipPath id="b"><circle cx="256" cy="256" r="256" fill="#a02c2c"/></clipPath></defs>

  <rect fill="#241F21" width="512" height="512" clip-path="url(#b)"/>
  <path d="m404.77 234.95a145.63 145.63 0 0 1-42.11 126.33 152.51 152.51 0 0 1-189.85
           18.949l41.057-40.004-150.89-21.055 21.055 147.38 45.97-44.215c82.816 61.059
           200.02 55.094 275.12-18.949a206.2 206.2 0 0 0 61.059-156.51zm-255.47-84.22a152.51
           152.51 0 0 1 189.85-18.949l-41.057 40.004 150.89 21.055-21.055-147.38-45.97
           44.215c-82.816-61.059-200.02-55.094-275.47 18.949-43.514 43.163-63.165
           100.01-60.708 156.51l61.41 12.282a146.33 146.33 0 0 1 42.11-126.68z" clip-path="url(#b)" fill="#a02c2c"/>
  <path d="m210.34 302.04c0-19.191-14.94-30.38-45.696-30.38h-61.823v61.386h64.699c26.63
           0.0625 42.82-10.502 42.82-31.005m-12.44-94.329c0-18.253-13.94-28.818-39.007-28.818h-56.135v59.51h53.322c25.004
           0 41.82-9.9392 41.82-30.693m39.069-6.3761c0 27.505-15.253 41.632-31.756 50.259 26.005 8.9391 44.133 23.942 44.133
           54.697 0 40.32-32.693 61.698-82.139 61.698h-102.83v-223.91h99.58c44.758 0 73.013 22.066 73.013 57.26" fill="#FFF"/>
  <path d="m360.74 227.59c-26.005 0-48.884 21.441-48.884 54.385 0 32.943 22.879 54.385 48.884 54.385 26.317 0 47.883-20.816
           47.883-54.385 0-33.256-21.879-54.385-47.883-54.385m8.8766 142.34c-27.63
           0-45.07-14.127-56.822-29.755v26.192h-38.382v-224.29h38.382v83.64c12.377-17.628
           29.818-31.693 56.822-31.693 39.694 0 78.014 31.693 78.014 87.953 0 56.26-38.007 87.953-78.014 87.953" fill="#FFF"/>
</svg>
