<?xml version="1.0" encoding="UTF-8" standalone="no"?>
<svg
   width="512"
   height="512"
   viewBox="0 0 512 512"
   version="1.1"
   id="SVGRoot"
   sodipodi:docname="logo.svg"
   inkscape:version="1.2.2 (b0a8486541, 2022-12-01)"
   inkscape:export-filename="/home/jacob/Design/Development/BlackboardSync/logo_92.png"
   inkscape:export-xdpi="92"
   inkscape:export-ydpi="92"
   xmlns:inkscape="http://www.inkscape.org/namespaces/inkscape"
   xmlns:sodipodi="http://sodipodi.sourceforge.net/DTD/sodipodi-0.dtd"
   xmlns:xlink="http://www.w3.org/1999/xlink"
   xmlns="http://www.w3.org/2000/svg"
   xmlns:svg="http://www.w3.org/2000/svg"
   xmlns:rdf="http://www.w3.org/1999/02/22-rdf-syntax-ns#"
   xmlns:cc="http://creativecommons.org/ns#"
   xmlns:dc="http://purl.org/dc/elements/1.1/">
  <defs
     id="defs1402">
    <rect
       id="SVGID_1_"
       y="0.93000001"
       width="90"
       height="89.07"
       x="0" />
    <defs
       id="defs2060">
      <rect
         id="rect2083"
         y="0.93000001"
         width="90"
         height="89.07"
         x="0" />
    </defs>
    <clipPath
       id="SVGID_2_">
      <use
         xlink:href="#SVGID_1_"
         style="overflow:visible"
         id="use2062"
         x="0"
         y="0"
         width="100%"
         height="100%" />
    </clipPath>
    <rect
       id="SVGID_1_-3"
       y="0.93000001"
       width="90"
       height="89.07"
       x="0" />
    <clipPath
       clipPathUnits="userSpaceOnUse"
       id="clipPath2661">
      <circle
         style="fill:#a02c2c;fill-opacity:0.929412;stroke-width:3.01181"
         id="circle2663"
         cx="250"
         cy="250"
         r="250" />
    </clipPath>
  </defs>
  <sodipodi:namedview
     id="base"
     pagecolor="#ffffff"
     bordercolor="#666666"
     borderopacity="1.0"
     inkscape:pageopacity="0.0"
     inkscape:pageshadow="2"
     inkscape:zoom="1.4"
     inkscape:cx="99.642857"
     inkscape:cy="269.28571"
     inkscape:document-units="px"
     inkscape:current-layer="layer1"
     inkscape:document-rotation="0"
     showgrid="true"
     inkscape:window-width="1920"
     inkscape:window-height="1013"
     inkscape:window-x="0"
     inkscape:window-y="0"
     inkscape:window-maximized="1"
     inkscape:showpageshadow="0"
     inkscape:pagecheckerboard="0"
     inkscape:deskcolor="#d1d1d1">
    <inkscape:grid
       type="xygrid"
       id="grid1972"
       originx="0"
       originy="0" />
  </sodipodi:namedview>
  <metadata
     id="metadata1405">
    <rdf:RDF>
      <cc:Work
         rdf:about="">
        <dc:format>image/svg+xml</dc:format>
        <dc:type
           rdf:resource="http://purl.org/dc/dcmitype/StillImage" />
      </cc:Work>
    </rdf:RDF>
  </metadata>
  <g
     inkscape:label="Layer 1"
     inkscape:groupmode="layer"
     id="layer1">
    <g
       id="g2659"
       clip-path="url(#clipPath2661)"
       transform="scale(1.024)">
      <rect
         y="0"
         class="st1"
         width="505.22061"
         height="500"
         id="rect2232"
         x="-2.6103058"
         style="stroke-width:5.61357" />
      <g
         id="g2646">
        <path
           fill-rule="evenodd"
           d="M 395.28686,229.43852 A 142.21687,142.21687 0 0 1 354.16392,352.80738 148.93362,148.93362 0 0 1 168.76795,371.31271 L 208.86283,332.2459 61.505587,311.68442 82.06705,455.61475 126.95962,412.43566 c 80.87513,59.62826 195.334,53.80252 268.66993,-18.50534 A 201.36538,201.36538 0 0 0 455.25783,241.09003 Z M 145.80763,147.19263 A 148.93362,148.93362 0 0 1 331.20359,128.6873 L 291.10873,167.7541 438.46595,188.31557 417.90448,44.38525 373.01193,87.56434 C 292.1368,27.93607 177.67793,33.761821 103.9993,106.06967 61.505587,148.2207 42.314877,203.73668 44.713716,258.90997 l 59.970974,11.9942 a 142.90225,142.90225 0 0 1 41.12294,-123.71154 z"
           id="path2606"
           style="fill:#a02c2c;stroke-width:34.2692" />
        <g
           id="g2246"
           transform="matrix(6.104586,0,0,6.104586,-24.675847,-27.545002)">
          <defs
             id="defs2235">
            <rect
               id="rect2258"
               y="0.93000001"
               width="90"
               height="89.07"
               x="0" />
          </defs>
          <clipPath
             id="SVGID_2_-6">
            <use
               xlink:href="#SVGID_1_-3"
               style="overflow:visible"
               id="use2237"
               x="0"
               y="0"
               width="100%"
               height="100%" />
          </clipPath>
          <g
             class="st2"
             clip-path="url(#SVGID_2_)"
             id="g2244">
            <path
               class="st3"
               d="m 37.69,52.83 c 0,-3.07 -2.39,-4.86 -7.31,-4.86 h -9.89 v 9.82 h 10.35 c 4.26,0.01 6.85,-1.68 6.85,-4.96 M 35.7,37.74 c 0,-2.92 -2.23,-4.61 -6.24,-4.61 h -8.98 v 9.52 h 8.53 c 4,0 6.69,-1.59 6.69,-4.91 m 6.25,-1.02 c 0,4.4 -2.44,6.66 -5.08,8.04 4.16,1.43 7.06,3.83 7.06,8.75 0,6.45 -5.23,9.87 -13.14,9.87 H 14.34 V 27.56 h 15.93 c 7.16,0 11.68,3.53 11.68,9.16"
               id="path2240" />
            <path
               class="st3"
               d="m 61.75,40.92 c -4.16,0 -7.82,3.43 -7.82,8.7 0,5.27 3.66,8.7 7.82,8.7 4.21,0 7.66,-3.33 7.66,-8.7 0,-5.32 -3.5,-8.7 -7.66,-8.7 m 1.42,22.77 c -4.42,0 -7.21,-2.26 -9.09,-4.76 v 4.19 H 47.94 V 27.24 h 6.14 v 13.38 c 1.98,-2.82 4.77,-5.07 9.09,-5.07 6.35,0 12.48,5.07 12.48,14.07 0,9 -6.08,14.07 -12.48,14.07"
               id="path2242" />
          </g>
        </g>
      </g>
    </g>
  </g>
  <style
     type="text/css"
     id="style2055">
	.st0{fill-rule:evenodd;clip-rule:evenodd;fill:#565656;}
	.st1{fill:#241F21;}
	.st2{clip-path:url(#SVGID_2_);}
	.st3{fill:#FFFFFF;}
</style>
  <style
     type="text/css"
     id="style2230">
	.st0{fill-rule:evenodd;clip-rule:evenodd;fill:#565656;}
	.st1{fill:#241F21;}
	.st2{clip-path:url(#SVGID_2_);}
	.st3{fill:#FFFFFF;}
</style>
</svg>
